#define colonE_width 25
#define colonE_height 65
static unsigned char colonE_bits[] = {
 0x00,0x00,0x00,0x00,0x00,0x00,0x00,0x00,0x00,0x00,0x00,0x00,0x00,0x00,0x00,
 0x00,0x00,0x00,0x00,0x00,0x00,0x00,0x00,0x00,0x00,0x00,0x00,0x00,0x00,0x00,
 0x00,0x00,0x00,0x00,0x00,0x00,0x00,0x00,0x00,0x00,0x00,0x00,0x00,0x00,0x00,
 0x00,0x00,0x00,0x00,0x00,0x00,0x00,0x00,0x00,0x00,0x00,0x00,0x00,0x00,0x00,
 0x00,0x00,0x00,0x00,0x00,0x00,0x00,0x00,0x00,0x00,0x00,0x00,0x00,0x00,0x00,
 0x00,0x00,0x18,0x00,0x00,0x00,0xff,0x00,0x00,0x80,0xff,0x01,0x00,0xc0,0xff,
 0x03,0x00,0xe0,0xff,0x07,0x00,0xe0,0xff,0x07,0x00,0xf0,0xff,0x0f,0x00,0xf0,
 0xff,0x0f,0x00,0xf0,0xff,0x0f,0x00,0xf0,0xff,0x0f,0x00,0xf0,0xff,0x07,0x00,
 0xe0,0xff,0x07,0x00,0xe0,0xff,0x07,0x00,0xc0,0xff,0x03,0x00,0x80,0xff,0x01,
 0x00,0x00,0x7f,0x00,0x00,0x00,0x00,0x00,0x00,0x00,0x00,0x00,0x00,0x00,0x00,
 0x00,0x00,0x00,0x00,0x00,0x00,0x00,0x00,0x00,0x00,0x00,0x00,0x00,0x00,0x00,
 0x00,0x00,0x00,0x00,0x00,0x00,0x00,0x00,0x00,0x00,0x00,0x00,0x00,0x00,0x00,
 0x00,0x00,0x00,0x00,0x00,0x00,0x00,0x00,0x00,0x00,0x00,0x00,0x00,0x00,0x00,
 0x00,0x00,0x3c,0x00,0x00,0x00,0xff,0x00,0x00,0xc0,0xff,0x01,0x00,0xc0,0xff,
 0x03,0x00,0xe0,0xff,0x07,0x00,0xe0,0xff,0x07,0x00,0xf0,0xff,0x0f,0x00,0xf0,
 0xff,0x0f,0x00,0xf0,0xff,0x0f,0x00,0xf0,0xff,0x0f,0x00,0xf0,0xff,0x07,0x00,
 0xe0,0xff,0x07,0x00,0xe0,0xff,0x03,0x00,0xc0,0xff,0x03,0x00,0x80,0xff,0x01,
 0x00,0x00,0x7e,0x00,0x00};
