#define colonF_width 13
#define colonF_height 33
static unsigned char colonF_bits[] = {
 0x00,0x00,0x00,0x00,0x00,0x00,0x00,0x00,0x00,0x00,0x00,0x00,0x00,0x00,0x00,
 0x00,0x00,0x00,0x00,0x00,0xf0,0x00,0xf8,0x01,0xfc,0x01,0xfc,0x03,0xfc,0x03,
 0xfc,0x01,0xf8,0x01,0x60,0x00,0x00,0x00,0x00,0x00,0x00,0x00,0x00,0x00,0x00,
 0x00,0x00,0x00,0x00,0x00,0x60,0x00,0xf8,0x01,0xfc,0x01,0xfc,0x03,0xfc,0x03,
 0xfc,0x01,0xf8,0x01,0xf0,0x00};
