#define colonG_width 7
#define colonG_height 16
static unsigned char colonG_bits[] = {
 0x00,0x00,0x00,0x00,0x00,0x18,0x3c,0x3c,0x18,0x00,0x00,0x00,0x18,0x3c,0x3c,
 0x18};
