#define eightG_width 12
#define eightG_height 16
static unsigned char eightG_bits[] = {
 0xf0,0x01,0x18,0x03,0x1c,0x07,0x1c,0x07,0x3c,0x07,0x7c,0x03,0xf8,0x00,0xf0,
 0x01,0xe0,0x03,0xdc,0x07,0x8c,0x07,0x0e,0x07,0x0e,0x07,0x0c,0x07,0x1c,0x03,
 0xf0,0x00};
