#define fiveG_width 12
#define fiveG_height 16
static unsigned char fiveG_bits[] = {
 0xf0,0x07,0xf0,0x07,0xf8,0x03,0x08,0x00,0x00,0x00,0x7c,0x00,0xfc,0x01,0xfc,
 0x03,0xe0,0x03,0x80,0x07,0x00,0x07,0x00,0x06,0x00,0x02,0x0e,0x02,0xbe,0x01,
 0x7c,0x00};
