#define fourG_width 12
#define fourG_height 16
static unsigned char fourG_bits[] = {
 0x00,0x03,0x80,0x03,0xc0,0x03,0xc0,0x03,0xa0,0x03,0x90,0x03,0x88,0x03,0x88,
 0x03,0x84,0x03,0x82,0x03,0xfe,0x07,0xfe,0x07,0xc0,0x03,0x80,0x03,0x80,0x03,
 0x80,0x03};
