#define nineG_width 12
#define nineG_height 16
static unsigned char nineG_bits[] = {
 0x78,0x00,0x8c,0x01,0x8e,0x01,0x8e,0x03,0x8e,0x03,0x8e,0x03,0x8e,0x03,0x8e,
 0x03,0x8e,0x03,0xf8,0x03,0xc0,0x03,0xc0,0x01,0xc0,0x00,0x60,0x00,0x38,0x00,
 0x06,0x00};
