#define oneG_width 12
#define oneG_height 16
static unsigned char oneG_bits[] = {
 0x40,0x00,0x70,0x00,0x7c,0x00,0x70,0x00,0x70,0x00,0x70,0x00,0x70,0x00,0x70,
 0x00,0x70,0x00,0x70,0x00,0x70,0x00,0x70,0x00,0x70,0x00,0x70,0x00,0xf0,0x00,
 0xfc,0x01};
