#define sevenG_width 12
#define sevenG_height 16
static unsigned char sevenG_bits[] = {
 0xfc,0x07,0xfc,0x07,0xfc,0x07,0x06,0x03,0x02,0x03,0x00,0x03,0x80,0x01,0x80,
 0x01,0x80,0x01,0xc0,0x00,0xc0,0x00,0xc0,0x00,0x60,0x00,0x60,0x00,0x60,0x00,
 0x30,0x00};
