#define sixG_width 12
#define sixG_height 16
static unsigned char sixG_bits[] = {
 0x00,0x06,0xc0,0x01,0x70,0x00,0x38,0x00,0x38,0x00,0x1c,0x00,0xfe,0x01,0x9e,
 0x07,0x0e,0x07,0x0e,0x07,0x0e,0x07,0x0e,0x07,0x1c,0x07,0x1c,0x07,0x18,0x03,
 0xf0,0x01};
