#define slashG_width 7
#define slashG_height 16
static unsigned char slashG_bits[] = {
 0x00,0x00,0x00,0x00,0x00,0x00,0x00,0x00,0x00,0x3e,0x3e,0x3e,0x00,0x00,0x00,
 0x00};
