#define threeG_width 12
#define threeG_height 16
static unsigned char threeG_bits[] = {
 0xf0,0x00,0xf8,0x01,0xc4,0x03,0x80,0x03,0x80,0x03,0x80,0x01,0xc0,0x01,0xf0,
 0x03,0xc0,0x07,0x80,0x07,0x00,0x07,0x00,0x07,0x00,0x02,0x0e,0x03,0x1e,0x01,
 0x7c,0x00};
