#define twoG_width 12
#define twoG_height 16
static unsigned char twoG_bits[] = {
 0xf0,0x00,0xf8,0x01,0xfc,0x03,0xc2,0x03,0x80,0x03,0x80,0x03,0x80,0x03,0x80,
 0x01,0xc0,0x00,0x40,0x00,0x20,0x00,0x10,0x04,0x08,0x04,0xfc,0x07,0xfe,0x03,
 0xfe,0x03};
