#define zeroG_width 12
#define zeroG_height 16
static unsigned char zeroG_bits[] = {
 0x70,0x00,0x88,0x01,0x8c,0x03,0x0e,0x03,0x0e,0x03,0x0e,0x07,0x0e,0x07,0x0e,
 0x07,0x0e,0x07,0x0e,0x07,0x0e,0x07,0x0e,0x03,0x8e,0x03,0x8c,0x03,0x88,0x01,
 0xf0,0x00};
